<svg xmlns="http://www.w3.org/2000/svg" viewBox="0 0 24 24" aria-hidden="true">
  <defs>
    <clipPath id="us-flag-circle">
      <circle cx="12" cy="12" r="12" />
    </clipPath>
  </defs>
  <g clip-path="url(#us-flag-circle)">
    <rect width="24" height="24" fill="#B22234" />
    <rect y="1.85" width="24" height="1.85" fill="#FFFFFF" />
    <rect y="5.55" width="24" height="1.85" fill="#FFFFFF" />
    <rect y="9.25" width="24" height="1.85" fill="#FFFFFF" />
    <rect y="13" width="24" height="1.85" fill="#FFFFFF" />
    <rect y="16.7" width="24" height="1.85" fill="#FFFFFF" />
    <rect y="20.4" width="24" height="1.85" fill="#FFFFFF" />
    <rect width="10.5" height="10.5" fill="#3C3B6E" />
    <circle cx="2.2" cy="2.2" r="0.55" fill="#FFFFFF" />
    <circle cx="4.4" cy="2.2" r="0.55" fill="#FFFFFF" />
    <circle cx="6.6" cy="2.2" r="0.55" fill="#FFFFFF" />
    <circle cx="8.8" cy="2.2" r="0.55" fill="#FFFFFF" />
    <circle cx="3.3" cy="4.1" r="0.55" fill="#FFFFFF" />
    <circle cx="5.5" cy="4.1" r="0.55" fill="#FFFFFF" />
    <circle cx="7.7" cy="4.1" r="0.55" fill="#FFFFFF" />
    <circle cx="2.2" cy="6" r="0.55" fill="#FFFFFF" />
    <circle cx="4.4" cy="6" r="0.55" fill="#FFFFFF" />
    <circle cx="6.6" cy="6" r="0.55" fill="#FFFFFF" />
    <circle cx="8.8" cy="6" r="0.55" fill="#FFFFFF" />
    <circle cx="3.3" cy="7.9" r="0.55" fill="#FFFFFF" />
    <circle cx="5.5" cy="7.9" r="0.55" fill="#FFFFFF" />
    <circle cx="7.7" cy="7.9" r="0.55" fill="#FFFFFF" />
  </g>
</svg>
